<svg version="1.1" xmlns="http://www.w3.org/2000/svg" xmlns:xlink="http://www.w3.org/1999/xlink" width="128px" height="128px" viewBox="0,0,256,256"><g fill="#20c997" fill-rule="nonzero" stroke="none" stroke-width="1" stroke-linecap="butt" stroke-linejoin="miter" stroke-miterlimit="10" stroke-dasharray="" stroke-dashoffset="0" font-family="none" font-weight="none" font-size="none" text-anchor="none" style="mix-blend-mode: normal"><g transform="scale(2,2)"><path d="M15.091,41.64h7v32.403c-3.59,0.682 -6.227,0.955 -9.09,0.955c-8.546,0 -13.001,-3.864 -13.001,-11.274c0,-7.136 4.728,-11.772 12.046,-11.772c1.136,0 2,0.09 3.045,0.363zM15.091,57.95c-0.818,-0.272 -1.5,-0.363 -2.363,-0.363c-3.546,0 -5.591,2.182 -5.591,6c0,3.727 1.954,5.773 5.545,5.773c0.773,0 1.41,-0.046 2.41,-0.182z"></path><path d="M33.227,52.45v16.228c0,5.59 -0.409,8.272 -1.636,10.59c-1.137,2.229 -2.637,3.637 -5.728,5.183l-6.5,-3.091c3.091,-1.455 4.59,-2.727 5.545,-4.682c1,-2 1.32,-4.318 1.32,-10.41v-13.818zM26.227,41.677h7v7.182h-7zM37.456,54.041c3.09,-1.454 6.045,-2.09 9.273,-2.09c3.59,0 5.954,0.954 7,2.818c0.59,1.045 0.772,2.409 0.772,5.318v14.227c-3.136,0.455 -7.09,0.773 -10,0.773c-5.863,0 -8.5,-2.046 -8.5,-6.591c0,-4.91 3.5,-7.182 12.091,-7.91v-1.545c0,-1.273 -0.636,-1.727 -2.409,-1.727c-2.59,0 -5.5,0.727 -8.228,2.137v-5.41zM48.41,65.178c-4.636,0.454 -6.136,1.182 -6.136,3c0,1.363 0.864,2 2.773,2c1.045,0 2,-0.09 3.363,-0.318zM57.912,53.541c4.136,-1.09 7.545,-1.59 11,-1.59c3.591,0 6.182,0.817 7.728,2.409c1.455,1.5 1.909,3.135 1.909,6.636v13.727h-7v-13.453c0,-2.682 -0.91,-3.682 -3.41,-3.682c-0.954,0 -1.817,0.09 -3.227,0.5v16.636h-7zM81.269,78.541c2.455,1.273 4.909,1.864 7.5,1.864c4.59,0 6.545,-1.864 6.545,-6.319v-0.136c-1.363,0.682 -2.727,0.955 -4.545,0.955c-6.137,0 -10.046,-4.046 -10.046,-10.455c0,-7.955 5.773,-12.455 16,-12.455c3,0 5.773,0.318 9.137,1l-2.397,5.05c-1.864,-0.364 -0.15,-0.05 -1.558,-0.186v0.728l0.09,2.954l0.046,3.818c0.046,0.955 0.046,1.91 0.091,2.864v1.91c0,6 -0.5,8.817 -2,11.135c-2.182,3.41 -5.954,5.092 -11.318,5.092c-2.728,0 -5.09,-0.41 -7.546,-1.364v-6.456zM95.179,57.631h-0.728c-1.363,-0.045 -2.954,0.318 -4.046,1c-1.681,0.955 -2.545,2.682 -2.545,5.137c0,3.5 1.727,5.5 4.818,5.5c0.955,0 1.728,-0.182 2.636,-0.454v-2.41c0,-0.817 -0.045,-1.727 -0.045,-2.681l-0.045,-3.227l-0.046,-2.319v-0.545zM116.727,51.86c7,0 11.273,4.409 11.273,11.545c0,7.319 -4.454,11.91 -11.546,11.91c-7,0 -11.318,-4.41 -11.318,-11.5c0,-7.365 4.455,-11.956 11.591,-11.956zM116.59,69.678c2.682,0 4.274,-2.228 4.274,-6.091c0,-3.818 -1.546,-6.091 -4.227,-6.091c-2.774,0 -4.365,2.228 -4.365,6.09c0,3.865 1.591,6.092 4.318,6.092z"></path></g></g></svg>