<?xml version="1.0" encoding="utf-8"?>
<svg viewBox="0 27.752 128 100.248" xmlns="http://www.w3.org/2000/svg">
  <defs>
    <linearGradient id="sqlite-original-wordmark-a" x1="-15.615" x2="-6.741" y1="-9.108" y2="-9.108" gradientTransform="matrix(0 4.0868 -4.0632 0 -14.448 103.81)" gradientUnits="userSpaceOnUse">
      <stop stop-color="#95d7f4" offset="0"/>
      <stop stop-color="#0f7fcc" offset="0.92"/>
      <stop stop-color="#0f7fcc" offset="1"/>
    </linearGradient>
  </defs>
  <path d="M 10.626 87.952 C 8.155 87.952 6.141 88.566 4.595 89.779 C 3.052 90.994 2.275 92.587 2.275 94.538 C 2.275 95.548 2.462 96.472 2.848 97.317 C 3.251 98.187 3.858 98.982 4.633 99.657 C 5.432 100.365 7.038 101.323 9.424 102.549 C 12.361 104.032 14.279 105.236 15.202 106.175 C 16.124 107.112 16.586 108.098 16.586 109.126 C 16.586 110.497 16.042 111.601 14.913 112.423 C 13.791 113.245 12.289 113.661 10.418 113.663 C 8.455 113.663 6.743 113.086 5.275 111.945 C 3.801 110.807 3.057 109.3 3.041 107.404 L 2.129 107.405 L 2.129 114.279 L 3.041 114.277 C 3.318 113.624 3.71 113.291 4.215 113.291 C 4.458 113.291 5.026 113.426 5.916 113.687 C 8.075 114.322 9.845 114.634 11.239 114.633 C 13.637 114.633 15.695 113.931 17.397 112.514 C 19.103 111.1 19.964 109.39 19.964 107.396 C 19.964 105.85 19.398 104.473 18.286 103.278 C 17.164 102.078 14.999 100.679 11.755 99.079 C 8.967 97.688 7.152 96.564 6.312 95.682 C 5.471 94.8 5.042 93.829 5.042 92.759 C 5.042 91.596 5.559 90.671 6.573 89.977 C 7.581 89.283 8.905 88.937 10.57 88.937 C 12.43 88.936 13.99 89.397 15.219 90.319 C 16.45 91.246 17.158 92.525 17.367 94.173 L 18.286 94.173 L 18.286 88.215 L 17.436 88.215 C 17.329 88.523 17.232 88.715 17.146 88.803 C 17.056 88.891 16.898 88.934 16.643 88.934 C 16.352 88.936 15.825 88.833 15.078 88.632 C 13.473 88.184 11.994 87.951 10.626 87.952 Z M 40.523 87.938 C 37.506 87.939 34.768 88.533 32.29 89.712 C 29.813 90.894 27.852 92.526 26.4 94.607 C 24.958 96.688 24.232 98.902 24.232 101.255 C 24.232 104.415 25.488 107.235 28.004 109.704 C 30.533 112.174 33.549 113.713 37.051 114.299 C 37.858 114.645 39.009 115.537 40.511 116.987 C 42.194 118.612 43.629 119.788 44.809 120.489 C 45.956 121.179 47.237 121.705 48.597 122.045 C 49.933 122.382 51.386 122.544 52.956 122.544 C 54.856 122.543 56.562 122.272 58.058 121.705 L 57.725 121.014 C 56.833 121.277 55.892 121.41 54.945 121.403 C 53.624 121.404 52.281 121.04 50.937 120.313 C 49.594 119.584 47.91 118.194 45.914 116.145 C 44.972 115.16 44.321 114.539 43.957 114.297 C 47.79 113.673 50.949 112.136 53.408 109.67 C 55.869 107.203 57.095 104.391 57.095 101.239 C 57.095 97.494 55.489 94.352 52.296 91.79 C 49.106 89.229 45.177 87.937 40.523 87.938 Z M 59.18 87.93 L 59.231 88.747 C 61.238 88.745 62.359 89.231 62.61 90.216 C 62.707 90.571 62.752 91.224 62.764 92.159 L 62.745 110.089 C 62.724 111.429 62.497 112.285 62.054 112.655 C 61.613 113.022 60.858 113.255 59.775 113.346 L 59.73 114.159 L 79.75 114.151 L 80.265 110.081 L 79.347 110.083 C 79.091 111.19 78.491 111.984 77.532 112.432 C 76.578 112.885 74.891 113.114 72.452 113.116 L 70.552 113.117 C 68.358 113.117 67.089 112.461 66.755 111.139 C 66.69 110.858 66.656 110.571 66.657 110.283 L 66.737 92.157 C 66.737 90.822 66.94 89.925 67.367 89.486 C 67.787 89.048 68.564 88.804 69.676 88.742 L 69.629 87.925 L 59.18 87.93 Z M 40.844 88.923 C 44.241 88.921 47.025 90.032 49.167 92.268 C 51.316 94.513 52.376 97.58 52.376 101.464 C 52.376 105.149 51.3 108.101 49.139 110.32 C 46.978 112.539 44.098 113.646 40.52 113.647 C 37.085 113.648 34.303 112.513 32.164 110.221 C 30.027 107.934 28.967 104.964 28.967 101.303 C 28.967 97.549 30.038 94.542 32.193 92.289 C 34.348 90.046 37.233 88.924 40.844 88.923 Z M 86.888 92.76 C 86.405 92.76 86.024 92.9 85.753 93.172 C 85.463 93.447 85.379 93.779 85.476 94.18 C 85.572 94.576 85.843 94.913 86.268 95.207 C 86.681 95.491 87.141 95.646 87.63 95.646 C 88.061 95.658 88.467 95.494 88.719 95.206 C 88.98 94.912 89.059 94.574 88.962 94.177 C 88.859 93.783 88.591 93.426 88.208 93.172 C 87.84 92.911 87.374 92.764 86.888 92.76 Z M 100.093 95.503 C 99.268 98.148 97.466 99.58 94.705 99.811 L 94.734 100.569 L 97.959 100.567 L 97.898 109.527 C 97.903 111.058 97.955 112.078 98.089 112.596 C 98.408 113.838 99.387 114.473 101.026 114.471 C 103.396 114.47 105.884 113.273 108.482 110.878 L 107.698 110.322 C 105.822 111.894 104.162 112.686 102.709 112.687 C 101.814 112.687 101.264 112.267 101.055 111.427 C 101.001 111.19 100.978 110.949 100.982 110.707 L 101.011 100.566 L 105.936 100.563 L 105.884 99.359 L 101.026 99.361 L 101.026 95.504 L 100.093 95.503 Z M 119.141 98.872 C 116.385 98.873 114.145 99.985 112.4 102.186 C 110.671 104.391 110.132 106.832 110.813 109.521 C 111.215 111.096 112.014 112.313 113.239 113.177 C 114.458 114.035 116.01 114.461 117.86 114.46 C 119.582 114.46 121.981 114.098 122.995 113.368 C 124.005 112.643 124.941 111.463 125.803 109.846 L 125.11 109.249 C 123.732 111.341 120.959 112.397 118.869 112.398 C 115.989 112.399 114.231 111.095 113.572 108.499 C 113.484 108.148 113.419 107.792 113.381 107.433 C 116.805 106.983 119.396 106.188 121.142 105.039 C 122.898 103.891 124.652 102.666 124.323 101.381 C 124.148 100.649 123.643 99.998 122.91 99.562 C 122.163 99.109 120.224 98.87 119.141 98.872 Z M 89.024 98.978 L 83.088 100.111 L 83.088 100.988 L 85.14 100.778 C 86.139 100.777 86.723 101.145 86.909 101.889 C 86.966 102.14 87.012 102.487 87.023 102.926 L 86.955 110.971 C 86.937 112.078 86.792 112.728 86.491 112.923 C 86.19 113.114 85.396 113.213 84.104 113.213 L 84.065 113.975 L 93.486 113.971 L 93.47 113.209 C 92.165 113.209 91.316 113.125 90.934 112.959 C 90.566 112.791 90.306 112.493 90.193 112.03 C 90.114 111.699 90.074 111.125 90.068 110.33 L 90.097 98.978 L 89.024 98.978 Z M 117.632 100.455 C 118.204 100.455 118.76 100.636 119.315 100.996 C 119.872 101.354 120.206 101.76 120.313 102.195 C 120.852 104.328 118.562 105.81 113.41 106.636 C 113.268 105.074 113.59 103.661 114.425 102.384 C 115.252 101.105 116.328 100.457 117.632 100.455 Z" fill="#003956" style="paint-order: stroke; stroke-width: 3px; stroke: rgb(255, 255, 255);"/>
  <path d="M39.492 37.938H4.289c-2.36 0-4.29 1.941-4.29 4.313v39.043c0 2.37 1.93 4.312 4.29 4.312h23.184c-.262-11.602 3.676-34.117 12.02-47.672z" fill="#0b7fcc"/>
  <path d="M38.207 39.195H4.289a3.048 3.048 0 00-3.04 3.055v36.195c7.685-2.965 19.212-5.528 27.185-5.406 1.605-8.43 6.312-24.942 9.773-33.849z" fill="url(#sqlite-original-wordmark-a)"/>
  <path d="M 47.699 36.629 C 45.289 34.516 42.367 35.364 39.492 37.879 C 39.062 38.253 38.632 38.666 38.207 39.11 C 33.281 44.258 28.707 53.784 27.289 61.064 C 27.839 62.165 28.273 63.575 28.559 64.653 C 28.698 65.19 28.825 65.73 28.941 66.273 C 28.941 66.273 28.894 66.105 28.715 65.589 L 28.593 65.249 C 28.572 65.188 28.547 65.128 28.519 65.07 C 28.199 64.332 27.309 62.78 26.918 62.104 C 26.607 62.999 26.316 63.899 26.043 64.805 C 27.168 66.838 27.855 70.328 27.855 70.328 C 27.855 70.328 27.8 70.099 27.515 69.315 C 27.261 68.616 26.008 66.453 25.707 65.944 C 25.199 67.794 25 69.04 25.179 69.346 C 25.535 69.935 25.875 70.947 26.172 72.075 C 26.84 74.604 27.3 77.681 27.3 77.681 L 27.34 78.2 C 27.254 80.308 27.298 82.419 27.472 84.522 C 27.692 87.154 28.112 89.417 28.64 90.632 L 29.004 90.437 C 28.222 88.05 27.906 84.919 28.043 81.312 C 28.253 75.797 29.543 69.143 31.925 62.215 C 35.957 51.747 41.539 43.352 46.652 39.341 C 41.992 43.485 35.687 56.888 33.797 61.856 C 31.684 67.408 30.188 72.625 29.282 77.626 C 30.844 72.941 35.88 70.928 35.88 70.928 C 35.88 70.928 38.348 67.931 41.235 63.644 C 39.508 64.033 36.665 64.699 35.715 65.088 C 34.309 65.669 33.935 65.868 33.935 65.868 C 33.935 65.868 38.481 63.147 42.375 61.909 C 47.739 53.601 53.583 41.795 47.7 36.628" fill="#003956" style="stroke: rgb(255, 255, 255); paint-order: stroke; stroke-width: 2px;"/>
</svg>